<svg width="31" height="26" viewBox="0 0 31 26" fill="none" xmlns="http://www.w3.org/2000/svg">
<g clip-path="url(#clip0)">
<path d="M29.4788 24.3217C29.5453 24.3223 29.6113 24.3095 29.6726 24.284C29.7338 24.2586 29.7891 24.221 29.835 24.1737C29.8809 24.1263 29.9165 24.0702 29.9394 24.0087C29.9623 23.9473 29.9722 23.8819 29.9683 23.8166C29.9683 23.4584 29.7487 23.2872 29.298 23.2872H28.5698V25.1626H28.8437V24.3451H29.1802L29.1879 24.3551L29.7102 25.1626H30.0032L29.4412 24.3268L29.4788 24.3217ZM29.1621 24.1338H28.8444V23.4998H29.247C29.4549 23.4998 29.692 23.5332 29.692 23.8011C29.692 24.1091 29.4521 24.1338 29.1604 24.1338" fill="#0A66C2"/>
<path d="M22.3341 21.9715H18.4502V15.9879C18.4502 14.561 18.4243 12.7242 16.4301 12.7242C14.4073 12.7242 14.0978 14.2788 14.0978 15.884V21.9711H10.2139V9.66637H13.9424V11.3479H13.9946C14.3677 10.7203 14.9069 10.204 15.5548 9.85396C16.2026 9.50394 16.9348 9.33333 17.6734 9.3603C21.6099 9.3603 22.3357 11.9075 22.3357 15.2213L22.3341 21.9715ZM5.83154 7.9844C5.38577 7.98448 4.94997 7.85452 4.57928 7.61094C4.20859 7.36737 3.91966 7.02113 3.74899 6.616C3.57833 6.21088 3.5336 5.76507 3.62049 5.33494C3.70738 4.90482 3.92198 4.5097 4.23713 4.19955C4.55228 3.8894 4.95385 3.67815 5.39104 3.59252C5.82823 3.50689 6.28141 3.55072 6.69328 3.71847C7.10516 3.88622 7.45721 4.17035 7.70494 4.53493C7.95266 4.89952 8.08494 5.32819 8.08502 5.76672C8.08507 6.0579 8.02681 6.34624 7.9136 6.61527C7.80038 6.8843 7.63442 7.12876 7.42517 7.33469C7.21591 7.54062 6.96746 7.70399 6.69403 7.81547C6.42059 7.92694 6.12753 7.98435 5.83154 7.9844V7.9844ZM7.77349 21.9715H3.88555V9.66637H7.77349V21.9715ZM24.2703 0.00163479H1.9339C1.42692 -0.00399353 0.938394 0.188615 0.575701 0.537136C0.213007 0.885657 0.00582113 1.36158 -0.000366211 1.86031V23.9253C0.00560937 24.4242 0.212674 24.9005 0.575355 25.2494C0.938036 25.5983 1.42667 25.7912 1.9339 25.7859H24.2703C24.7786 25.7922 25.2686 25.5998 25.6327 25.2509C25.9968 24.902 26.2053 24.4252 26.2123 23.9253V1.85872C26.205 1.35899 25.9965 0.882534 25.6323 0.534022C25.2682 0.18551 24.7783 -0.00654867 24.2703 4.21252e-05" fill="#0A66C2"/>
<path d="M29.1952 22.4518C28.7227 22.4563 28.2711 22.6446 27.9394 22.9757C27.6077 23.3068 27.4227 23.7537 27.425 24.2185C27.4273 24.6834 27.6166 25.1285 27.9516 25.4564C28.2865 25.7844 28.7398 25.9685 29.2124 25.9685C29.685 25.9685 30.1383 25.7844 30.4732 25.4564C30.8082 25.1285 30.9975 24.6834 30.9998 24.2185C31.0021 23.7537 30.8171 23.3068 30.4854 22.9757C30.1537 22.6446 29.7021 22.4563 29.2296 22.4518H29.1952ZM29.1952 25.7671C28.8853 25.7722 28.5808 25.6868 28.3202 25.5216C28.0596 25.3564 27.8547 25.1189 27.7313 24.8392C27.6079 24.5594 27.5716 24.2499 27.627 23.9499C27.6825 23.6499 27.8271 23.3727 28.0426 23.1535C28.2581 22.9343 28.5348 22.7829 28.8378 22.7185C29.1408 22.654 29.4564 22.6794 29.7447 22.7914C30.0331 22.9034 30.2811 23.097 30.4576 23.3477C30.6341 23.5984 30.7311 23.8949 30.7362 24.1998C30.7362 24.2086 30.7362 24.2169 30.7362 24.2257C30.7449 24.6257 30.5917 25.0127 30.3104 25.3016C30.0291 25.5905 29.6426 25.7577 29.2361 25.7664H29.1956" fill="#0A66C2"/>
</g>
<defs>
<clipPath id="clip0">
<rect width="31" height="26" fill="white"/>
</clipPath>
</defs>
</svg>
