<svg width="32" height="32" viewBox="0 0 32 32" fill="none" xmlns="http://www.w3.org/2000/svg">
<g clip-path="url(#clip0)">
<path fill-rule="evenodd" clip-rule="evenodd" d="M11.6812 0.0787964C11.2624 0.0791853 10.8478 0.162069 10.461 0.322715C10.0742 0.483361 9.7229 0.718621 9.42706 1.01506C9.13123 1.3115 8.89669 1.66331 8.73683 2.05041C8.57698 2.4375 8.49494 2.85229 8.49541 3.27109C8.49502 3.68984 8.57711 4.10457 8.737 4.4916C8.89689 4.87862 9.13145 5.23036 9.42727 5.52674C9.7231 5.82312 10.0744 6.05833 10.4611 6.21893C10.8479 6.37954 11.2624 6.46241 11.6812 6.4628H14.867V3.27109C14.8674 2.85229 14.7854 2.4375 14.6255 2.05041C14.4657 1.66331 14.2311 1.3115 13.9353 1.01506C13.6395 0.718621 13.2881 0.483361 12.9014 0.322715C12.5146 0.162069 12.1 0.0791853 11.6812 0.0787964V0.0787964ZM11.6812 8.59139H3.18578C2.76703 8.59178 2.35245 8.67464 1.96573 8.83525C1.579 8.99586 1.22769 9.23107 0.931867 9.52744C0.63604 9.82382 0.401486 10.1756 0.241596 10.5626C0.0817065 10.9496 -0.000387299 11.3643 1.984e-06 11.7831C-0.000465175 12.2019 0.0815711 12.6167 0.241426 13.0038C0.401281 13.3909 0.635823 13.7427 0.931657 14.0391C1.22749 14.3356 1.57882 14.5708 1.96559 14.7315C2.35235 14.8921 2.76698 14.975 3.18578 14.9754H11.6812C12.1 14.975 12.5146 14.8921 12.9014 14.7315C13.2881 14.5708 13.6395 14.3356 13.9353 14.0391C14.2311 13.7427 14.4657 13.3909 14.6255 13.0038C14.7854 12.6167 14.8674 12.2019 14.867 11.7831C14.8673 11.3643 14.7853 10.9496 14.6254 10.5626C14.4655 10.1756 14.2309 9.82382 13.9351 9.52744C13.6393 9.23107 13.288 8.99586 12.9012 8.83525C12.5145 8.67464 12.0999 8.59178 11.6812 8.59139" fill="#36C5F0"/>
<path fill-rule="evenodd" clip-rule="evenodd" d="M31.8578 11.7831C31.8582 11.3643 31.7761 10.9496 31.6162 10.5626C31.4563 10.1756 31.2217 9.82382 30.9259 9.52744C30.6301 9.23107 30.2788 8.99586 29.8921 8.83525C29.5053 8.67464 29.0908 8.59178 28.672 8.59139C28.2532 8.59178 27.8387 8.67464 27.4519 8.83525C27.0652 8.99586 26.7139 9.23107 26.4181 9.52744C26.1223 9.82382 25.8877 10.1756 25.7278 10.5626C25.5679 10.9496 25.4858 11.3643 25.4862 11.7831V14.9754H28.672C29.0908 14.975 29.5054 14.8921 29.8922 14.7315C30.279 14.5708 30.6303 14.3356 30.9261 14.0391C31.222 13.7427 31.4565 13.3909 31.6164 13.0038C31.7762 12.6167 31.8582 12.2019 31.8578 11.7831ZM23.3624 11.7831V3.27109C23.3628 2.85229 23.2808 2.4375 23.1209 2.05041C22.9611 1.66331 22.7266 1.3115 22.4307 1.01506C22.1349 0.718621 21.7835 0.483361 21.3968 0.322715C21.01 0.162069 20.5954 0.0791853 20.1766 0.0787964C19.7578 0.0791853 19.3432 0.162069 18.9564 0.322715C18.5696 0.483361 18.2183 0.718621 17.9225 1.01506C17.6266 1.3115 17.3921 1.66331 17.2322 2.05041C17.0724 2.4375 16.9903 2.85229 16.9908 3.27109V11.7831C16.9903 12.2019 17.0724 12.6167 17.2322 13.0038C17.3921 13.3909 17.6266 13.7427 17.9225 14.0391C18.2183 14.3356 18.5696 14.5708 18.9564 14.7315C19.3432 14.8921 19.7578 14.975 20.1766 14.9754C20.5954 14.975 21.01 14.8921 21.3968 14.7315C21.7835 14.5708 22.1349 14.3356 22.4307 14.0391C22.7266 13.7427 22.9611 13.3909 23.1209 13.0038C23.2808 12.6167 23.3628 12.2019 23.3624 11.7831" fill="#2EB67D"/>
<path fill-rule="evenodd" clip-rule="evenodd" d="M20.1766 32C20.5954 31.9996 21.01 31.9167 21.3968 31.7561C21.7835 31.5954 22.1349 31.3602 22.4307 31.0637C22.7266 30.7673 22.9611 30.4155 23.1209 30.0284C23.2808 29.6413 23.3628 29.2265 23.3624 28.8077C23.3628 28.3889 23.2807 27.9742 23.1208 27.5872C22.9609 27.2002 22.7263 26.8484 22.4305 26.552C22.1347 26.2557 21.7834 26.0205 21.3966 25.8598C21.0099 25.6992 20.5953 25.6164 20.1766 25.616H16.9908V28.8077C16.9903 29.2265 17.0724 29.6413 17.2322 30.0284C17.3921 30.4155 17.6266 30.7673 17.9225 31.0637C18.2183 31.3602 18.5696 31.5954 18.9564 31.7561C19.3432 31.9167 19.7578 31.9996 20.1766 32ZM20.1766 23.4874H28.672C29.0908 23.487 29.5053 23.4041 29.8921 23.2435C30.2788 23.0829 30.6301 22.8477 30.9259 22.5513C31.2217 22.255 31.4563 21.9032 31.6162 21.5162C31.7761 21.1292 31.8582 20.7144 31.8578 20.2957C31.8582 19.8769 31.7762 19.4621 31.6164 19.075C31.4565 18.6879 31.222 18.3361 30.9261 18.0397C30.6303 17.7432 30.279 17.508 29.8922 17.3473C29.5054 17.1867 29.0908 17.1038 28.672 17.1034H20.1766C19.7578 17.1038 19.3432 17.1867 18.9564 17.3473C18.5696 17.508 18.2183 17.7432 17.9225 18.0397C17.6266 18.3361 17.3921 18.6879 17.2322 19.075C17.0724 19.4621 16.9903 19.8769 16.9908 20.2957C16.9904 20.7144 17.0725 21.1292 17.2324 21.5162C17.3923 21.9032 17.6269 22.255 17.9227 22.5513C18.2185 22.8477 18.5698 23.0829 18.9565 23.2435C19.3433 23.4041 19.7578 23.487 20.1766 23.4874" fill="#ECB22E"/>
<path fill-rule="evenodd" clip-rule="evenodd" d="M2.70014e-06 20.2957C-0.000386582 20.7144 0.0817072 21.1292 0.241597 21.5162C0.401486 21.9032 0.636041 22.255 0.931867 22.5513C1.22769 22.8477 1.579 23.0829 1.96573 23.2435C2.35245 23.4041 2.76703 23.487 3.18578 23.4874C3.60453 23.487 4.01911 23.4041 4.40583 23.2435C4.79256 23.0829 5.14386 22.8477 5.43969 22.5513C5.73552 22.255 5.97007 21.9032 6.12996 21.5162C6.28985 21.1292 6.37195 20.7144 6.37156 20.2957V17.1034H3.18578C2.76693 17.1038 2.35226 17.1867 1.96545 17.3474C1.57865 17.5081 1.22729 17.7434 0.931448 18.0399C0.635606 18.3364 0.401076 18.6883 0.241256 19.0754C0.0814365 19.4626 -0.000542353 19.8774 2.70014e-06 20.2963V20.2957ZM8.49541 20.2957V28.8077C8.49494 29.2265 8.57698 29.6413 8.73683 30.0284C8.89669 30.4155 9.13123 30.7673 9.42706 31.0637C9.7229 31.3602 10.0742 31.5954 10.461 31.7561C10.8478 31.9167 11.2624 31.9996 11.6812 32C12.1 31.9996 12.5146 31.9167 12.9014 31.7561C13.2881 31.5954 13.6395 31.3602 13.9353 31.0637C14.2311 30.7673 14.4657 30.4155 14.6255 30.0284C14.7854 29.6413 14.8674 29.2265 14.867 28.8077V20.2963C14.8674 19.8775 14.7854 19.4627 14.6255 19.0756C14.4657 18.6885 14.2311 18.3367 13.9353 18.0403C13.6395 17.7438 13.2881 17.5086 12.9014 17.3479C12.5146 17.1873 12.1 17.1044 11.6812 17.104C11.2624 17.1044 10.8478 17.1873 10.461 17.3479C10.0742 17.5086 9.7229 17.7438 9.42706 18.0403C9.13123 18.3367 8.89669 18.6885 8.73683 19.0756C8.57698 19.4627 8.49494 19.8775 8.49541 20.2963" fill="#E01E5A"/>
</g>
<defs>
<clipPath id="clip0">
<rect width="32" height="32" fill="white"/>
</clipPath>
</defs>
</svg>
