<svg width="31" height="31" viewBox="0 0 31 31" fill="none" xmlns="http://www.w3.org/2000/svg">
<path fill-rule="evenodd" clip-rule="evenodd" d="M2.26042 3.875C1.01202 3.875 0 4.88702 0 6.13542V24.2188C0 25.4671 1.01202 26.4792 2.26042 26.4792H28.7396C29.988 26.4792 31 25.4671 31 24.2188V6.13542C31 4.88702 29.988 3.875 28.7396 3.875H2.26042ZM1.9375 6.13542C1.9375 5.95708 2.08207 5.8125 2.26042 5.8125H28.7396C28.9179 5.8125 29.0625 5.95707 29.0625 6.13542V7.23536L15.6807 16.2771C15.5715 16.3509 15.4284 16.3509 15.3192 16.2771L1.9375 7.23541V6.13542ZM1.9375 9.57372V24.2188C1.9375 24.3971 2.08207 24.5417 2.26042 24.5417H28.7396C28.9179 24.5417 29.0625 24.3971 29.0625 24.2188V9.57367L16.7655 17.8825C16.0009 18.3991 14.999 18.3991 14.2345 17.8825L1.9375 9.57372Z" fill="#828282"/>
</svg>
