<svg width="369" height="36" viewBox="0 0 369 36" fill="none" xmlns="http://www.w3.org/2000/svg">
<path d="M25.4205 23.408C25.4205 25.6773 24.9605 27.732 24.0405 29.572C23.1205 31.3813 21.7098 32.8227 19.8085 33.896C17.9378 34.9387 15.5458 35.46 12.6325 35.46C8.5538 35.46 5.44114 34.356 3.29447 32.148C1.17847 29.9093 0.120469 26.9653 0.120469 23.316V2.156H4.26047V23.454C4.26047 26.122 4.9658 28.192 6.37647 29.664C7.8178 31.136 9.9798 31.872 12.8625 31.872C15.8371 31.872 17.9838 31.09 19.3025 29.526C20.6518 27.9313 21.3265 25.892 21.3265 23.408V2.156H25.4205V23.408ZM56.399 35H51.707L43.013 20.74L34.181 35H29.811L40.713 17.888L30.501 2.156H35.101L43.151 15.036L51.247 2.156H55.617L45.451 17.796L56.399 35ZM73.2321 2.156L60.9961 35H57.0401L69.2761 2.156H73.2321ZM103.135 23.408C103.135 25.6773 102.675 27.732 101.755 29.572C100.835 31.3813 99.4246 32.8227 97.5233 33.896C95.6526 34.9387 93.2606 35.46 90.3473 35.46C86.2686 35.46 83.156 34.356 81.0093 32.148C78.8933 29.9093 77.8353 26.9653 77.8353 23.316V2.156H81.9753V23.454C81.9753 26.122 82.6806 28.192 84.0913 29.664C85.5326 31.136 87.6946 31.872 90.5773 31.872C93.552 31.872 95.6986 31.09 97.0173 29.526C98.3666 27.9313 99.0413 25.892 99.0413 23.408V2.156H103.135V23.408ZM121.05 35H109.182V32.608L113.046 31.734V5.468L109.182 4.548V2.156H121.05V4.548L117.186 5.468V31.734L121.05 32.608V35ZM153.417 5.33C149.89 5.33 147.115 6.51067 145.091 8.872C143.067 11.2333 142.055 14.4687 142.055 18.578C142.055 22.6567 142.99 25.892 144.861 28.284C146.762 30.6453 149.599 31.826 153.371 31.826C154.812 31.826 156.177 31.7033 157.465 31.458C158.753 31.2127 160.01 30.906 161.237 30.538V34.126C160.01 34.586 158.738 34.9233 157.419 35.138C156.131 35.3527 154.582 35.46 152.773 35.46C149.43 35.46 146.64 34.77 144.401 33.39C142.162 32.01 140.476 30.0473 139.341 27.502C138.237 24.9567 137.685 21.9667 137.685 18.532C137.685 15.22 138.283 12.3067 139.479 9.792C140.706 7.24666 142.5 5.26866 144.861 3.858C147.222 2.41666 150.09 1.696 153.463 1.696C156.928 1.696 159.949 2.34 162.525 3.628L160.869 7.124C159.857 6.664 158.722 6.25 157.465 5.882C156.238 5.514 154.889 5.33 153.417 5.33ZM189.289 22.626C189.289 26.7047 188.247 29.8633 186.161 32.102C184.107 34.3407 181.316 35.46 177.789 35.46C175.612 35.46 173.665 34.9693 171.947 33.988C170.261 32.976 168.927 31.5193 167.945 29.618C166.964 27.686 166.473 25.3553 166.473 22.626C166.473 18.5473 167.501 15.404 169.555 13.196C171.61 10.988 174.401 9.884 177.927 9.884C180.166 9.884 182.129 10.39 183.815 11.402C185.533 12.3833 186.867 13.8247 187.817 15.726C188.799 17.5967 189.289 19.8967 189.289 22.626ZM170.659 22.626C170.659 25.5393 171.227 27.8547 172.361 29.572C173.527 31.2587 175.367 32.102 177.881 32.102C180.365 32.102 182.19 31.2587 183.355 29.572C184.521 27.8547 185.103 25.5393 185.103 22.626C185.103 19.7127 184.521 17.428 183.355 15.772C182.19 14.116 180.35 13.288 177.835 13.288C175.321 13.288 173.496 14.116 172.361 15.772C171.227 17.428 170.659 19.7127 170.659 22.626ZM207.573 9.884C210.517 9.884 212.74 10.6047 214.243 12.046C215.746 13.4567 216.497 15.7567 216.497 18.946V35H212.495V19.222C212.495 15.266 210.655 13.288 206.975 13.288C204.246 13.288 202.36 14.0547 201.317 15.588C200.274 17.1213 199.753 19.3293 199.753 22.212V35H195.705V10.344H198.971L199.569 13.702H199.799C200.596 12.414 201.7 11.4633 203.111 10.85C204.522 10.206 206.009 9.884 207.573 9.884ZM240.194 28.192C240.194 30.584 239.305 32.3933 237.526 33.62C235.748 34.8467 233.356 35.46 230.35 35.46C228.633 35.46 227.146 35.322 225.888 35.046C224.662 34.77 223.573 34.3867 222.622 33.896V30.216C223.604 30.7067 224.784 31.1667 226.164 31.596C227.575 31.9947 229.001 32.194 230.442 32.194C232.497 32.194 233.984 31.872 234.904 31.228C235.824 30.5533 236.284 29.664 236.284 28.56C236.284 27.9467 236.116 27.3947 235.778 26.904C235.441 26.4133 234.828 25.9227 233.938 25.432C233.08 24.9413 231.838 24.3893 230.212 23.776C228.618 23.1627 227.253 22.5493 226.118 21.936C224.984 21.3227 224.11 20.5867 223.496 19.728C222.883 18.8693 222.576 17.7653 222.576 16.416C222.576 14.3307 223.42 12.7207 225.106 11.586C226.824 10.4513 229.062 9.884 231.822 9.884C233.325 9.884 234.72 10.0373 236.008 10.344C237.327 10.62 238.554 11.0187 239.688 11.54L238.308 14.76C237.266 14.3307 236.177 13.9627 235.042 13.656C233.908 13.3493 232.742 13.196 231.546 13.196C229.89 13.196 228.618 13.472 227.728 14.024C226.87 14.5453 226.44 15.266 226.44 16.186C226.44 16.8607 226.64 17.4433 227.038 17.934C227.437 18.394 228.096 18.854 229.016 19.314C229.967 19.7433 231.224 20.2647 232.788 20.878C234.352 21.4607 235.686 22.0587 236.79 22.672C237.894 23.2853 238.738 24.0367 239.32 24.926C239.903 25.7847 240.194 26.8733 240.194 28.192ZM266.76 10.344V35H263.448L262.85 31.734H262.666C261.869 33.022 260.765 33.9727 259.354 34.586C257.944 35.1687 256.441 35.46 254.846 35.46C251.872 35.46 249.633 34.7547 248.13 33.344C246.628 31.9027 245.876 29.618 245.876 26.49V10.344H249.97V26.214C249.97 30.1393 251.795 32.102 255.444 32.102C258.174 32.102 260.06 31.3353 261.102 29.802C262.176 28.2687 262.712 26.0607 262.712 23.178V10.344H266.76ZM278.636 35H274.588V0.0399977H278.636V35ZM294.681 32.148C295.294 32.148 295.923 32.102 296.567 32.01C297.211 31.8873 297.732 31.7647 298.131 31.642V34.724C297.702 34.9387 297.088 35.1073 296.291 35.23C295.494 35.3833 294.727 35.46 293.991 35.46C292.703 35.46 291.507 35.2453 290.403 34.816C289.33 34.356 288.456 33.574 287.781 32.47C287.106 31.366 286.769 29.8173 286.769 27.824V13.472H283.273V11.54L286.815 9.93L288.425 4.686H290.817V10.344H297.947V13.472H290.817V27.732C290.817 29.2347 291.17 30.354 291.875 31.09C292.611 31.7953 293.546 32.148 294.681 32.148ZM312.406 9.93C315.412 9.93 317.635 10.5893 319.076 11.908C320.518 13.2267 321.238 15.3273 321.238 18.21V35H318.294L317.512 31.504H317.328C316.255 32.8533 315.12 33.85 313.924 34.494C312.759 35.138 311.134 35.46 309.048 35.46C306.81 35.46 304.954 34.8773 303.482 33.712C302.01 32.516 301.274 30.6607 301.274 28.146C301.274 25.6927 302.24 23.8067 304.172 22.488C306.104 21.1387 309.079 20.4027 313.096 20.28L317.282 20.142V18.67C317.282 16.6153 316.838 15.1893 315.948 14.392C315.059 13.5947 313.802 13.196 312.176 13.196C310.888 13.196 309.662 13.3953 308.496 13.794C307.331 14.162 306.242 14.5913 305.23 15.082L303.988 12.046C305.062 11.4633 306.334 10.9727 307.806 10.574C309.278 10.1447 310.812 9.93 312.406 9.93ZM313.602 23.086C310.536 23.2087 308.404 23.6993 307.208 24.558C306.043 25.4167 305.46 26.628 305.46 28.192C305.46 29.572 305.874 30.584 306.702 31.228C307.561 31.872 308.65 32.194 309.968 32.194C312.054 32.194 313.786 31.6267 315.166 30.492C316.546 29.3267 317.236 27.548 317.236 25.156V22.948L313.602 23.086ZM340.721 9.884C343.665 9.884 345.889 10.6047 347.391 12.046C348.894 13.4567 349.645 15.7567 349.645 18.946V35H345.643V19.222C345.643 15.266 343.803 13.288 340.123 13.288C337.394 13.288 335.508 14.0547 334.465 15.588C333.423 17.1213 332.901 19.3293 332.901 22.212V35H328.853V10.344H332.119L332.717 13.702H332.947C333.745 12.414 334.849 11.4633 336.259 10.85C337.67 10.206 339.157 9.884 340.721 9.884ZM365.523 32.148C366.136 32.148 366.765 32.102 367.409 32.01C368.053 31.8873 368.574 31.7647 368.973 31.642V34.724C368.544 34.9387 367.93 35.1073 367.133 35.23C366.336 35.3833 365.569 35.46 364.833 35.46C363.545 35.46 362.349 35.2453 361.245 34.816C360.172 34.356 359.298 33.574 358.623 32.47C357.948 31.366 357.611 29.8173 357.611 27.824V13.472H354.115V11.54L357.657 9.93L359.267 4.686H361.659V10.344H368.789V13.472H361.659V27.732C361.659 29.2347 362.012 30.354 362.717 31.09C363.453 31.7953 364.388 32.148 365.523 32.148Z" fill="black"/>
</svg>
