<svg width="330" height="46" viewBox="0 0 330 46" fill="none" xmlns="http://www.w3.org/2000/svg">
<path d="M25.4009 22.408C25.4009 24.6773 24.9409 26.732 24.0209 28.572C23.1009 30.3813 21.6903 31.8227 19.7889 32.896C17.9183 33.9387 15.5263 34.46 12.6129 34.46C8.53427 34.46 5.4216 33.356 3.27494 31.148C1.15894 28.9093 0.100938 25.9653 0.100938 22.316V1.156H4.24094V22.454C4.24094 25.122 4.94627 27.192 6.35694 28.664C7.79827 30.136 9.96027 30.872 12.8429 30.872C15.8176 30.872 17.9643 30.09 19.2829 28.526C20.6323 26.9313 21.3069 24.892 21.3069 22.408V1.156H25.4009V22.408ZM56.3794 34H51.6874L42.9934 19.74L34.1614 34H29.7914L40.6934 16.888L30.4814 1.156H35.0814L43.1314 14.036L51.2274 1.156H55.5974L45.4314 16.796L56.3794 34ZM73.2125 1.156L60.9765 34H57.0205L69.2565 1.156H73.2125ZM103.116 22.408C103.116 24.6773 102.656 26.732 101.736 28.572C100.816 30.3813 99.4051 31.8227 97.5038 32.896C95.6331 33.9387 93.2411 34.46 90.3278 34.46C86.2491 34.46 83.1364 33.356 80.9898 31.148C78.8738 28.9093 77.8158 25.9653 77.8158 22.316V1.156H81.9558V22.454C81.9558 25.122 82.6611 27.192 84.0718 28.664C85.5131 30.136 87.6751 30.872 90.5578 30.872C93.5324 30.872 95.6791 30.09 96.9978 28.526C98.3471 26.9313 99.0218 24.892 99.0218 22.408V1.156H103.116V22.408ZM121.03 34H109.162V31.608L113.026 30.734V4.468L109.162 3.548V1.156H121.03V3.548L117.166 4.468V30.734L121.03 31.608V34ZM165.633 17.256C165.633 22.8067 164.115 26.9927 161.079 29.814C158.074 32.6047 153.873 34 148.475 34H139.321V1.156H149.441C152.753 1.156 155.621 1.76933 158.043 2.996C160.466 4.22267 162.337 6.032 163.655 8.424C164.974 10.7853 165.633 13.7293 165.633 17.256ZM161.263 17.394C161.263 13.0087 160.175 9.804 157.997 7.78C155.851 5.72533 152.799 4.698 148.843 4.698H143.461V30.458H147.923C156.817 30.458 161.263 26.1033 161.263 17.394ZM181.893 8.884C184.009 8.884 185.818 9.344 187.321 10.264C188.854 11.184 190.02 12.4873 190.817 14.174C191.645 15.83 192.059 17.7773 192.059 20.016V22.454H175.177C175.238 25.2447 175.944 27.376 177.293 28.848C178.673 30.2893 180.59 31.01 183.043 31.01C184.607 31.01 185.987 30.872 187.183 30.596C188.41 30.2893 189.667 29.86 190.955 29.308V32.85C189.698 33.402 188.456 33.8007 187.229 34.046C186.002 34.322 184.546 34.46 182.859 34.46C180.528 34.46 178.458 33.9847 176.649 33.034C174.87 32.0833 173.475 30.6727 172.463 28.802C171.482 26.9007 170.991 24.5853 170.991 21.856C170.991 19.1573 171.436 16.842 172.325 14.91C173.245 12.978 174.518 11.4907 176.143 10.448C177.799 9.40533 179.716 8.884 181.893 8.884ZM181.847 12.196C179.915 12.196 178.382 12.8247 177.247 14.082C176.143 15.3087 175.484 17.026 175.269 19.234H187.827C187.796 17.1487 187.306 15.462 186.355 14.174C185.404 12.8553 183.902 12.196 181.847 12.196ZM214.39 27.192C214.39 29.584 213.5 31.3933 211.722 32.62C209.943 33.8467 207.551 34.46 204.546 34.46C202.828 34.46 201.341 34.322 200.084 34.046C198.857 33.77 197.768 33.3867 196.818 32.896V29.216C197.799 29.7067 198.98 30.1667 200.36 30.596C201.77 30.9947 203.196 31.194 204.638 31.194C206.692 31.194 208.18 30.872 209.1 30.228C210.02 29.5533 210.48 28.664 210.48 27.56C210.48 26.9467 210.311 26.3947 209.974 25.904C209.636 25.4133 209.023 24.9227 208.134 24.432C207.275 23.9413 206.033 23.3893 204.408 22.776C202.813 22.1627 201.448 21.5493 200.314 20.936C199.179 20.3227 198.305 19.5867 197.692 18.728C197.078 17.8693 196.772 16.7653 196.772 15.416C196.772 13.3307 197.615 11.7207 199.302 10.586C201.019 9.45133 203.258 8.884 206.018 8.884C207.52 8.884 208.916 9.03733 210.204 9.344C211.522 9.62 212.749 10.0187 213.884 10.54L212.504 13.76C211.461 13.3307 210.372 12.9627 209.238 12.656C208.103 12.3493 206.938 12.196 205.742 12.196C204.086 12.196 202.813 12.472 201.924 13.024C201.065 13.5453 200.636 14.266 200.636 15.186C200.636 15.8607 200.835 16.4433 201.234 16.934C201.632 17.394 202.292 17.854 203.212 18.314C204.162 18.7433 205.42 19.2647 206.984 19.878C208.548 20.4607 209.882 21.0587 210.986 21.672C212.09 22.2853 212.933 23.0367 213.516 23.926C214.098 24.7847 214.39 25.8733 214.39 27.192ZM222.418 0.0979978C223.031 0.0979978 223.568 0.312664 224.028 0.741998C224.518 1.14066 224.764 1.78466 224.764 2.674C224.764 3.53266 224.518 4.17666 224.028 4.606C223.568 5.03533 223.031 5.25 222.418 5.25C221.743 5.25 221.176 5.03533 220.716 4.606C220.256 4.17666 220.026 3.53266 220.026 2.674C220.026 1.78466 220.256 1.14066 220.716 0.741998C221.176 0.312664 221.743 0.0979978 222.418 0.0979978ZM224.396 9.344V34H220.348V9.344H224.396ZM240.947 8.884C242.572 8.884 244.029 9.19067 245.317 9.804C246.636 10.4173 247.755 11.3527 248.675 12.61H248.905L249.457 9.344H252.677V34.414C252.677 37.9407 251.772 40.5933 249.963 42.372C248.184 44.1507 245.409 45.04 241.637 45.04C238.018 45.04 235.059 44.5187 232.759 43.476V39.75C235.182 41.038 238.218 41.682 241.867 41.682C243.983 41.682 245.639 41.0533 246.835 39.796C248.062 38.5693 248.675 36.8827 248.675 34.736V33.77C248.675 33.402 248.69 32.8807 248.721 32.206C248.752 31.5007 248.782 31.01 248.813 30.734H248.629C246.973 33.218 244.428 34.46 240.993 34.46C237.804 34.46 235.304 33.3407 233.495 31.102C231.716 28.8633 230.827 25.7353 230.827 21.718C230.827 17.7927 231.716 14.68 233.495 12.38C235.304 10.0493 237.788 8.884 240.947 8.884ZM241.499 12.288C239.444 12.288 237.85 13.116 236.715 14.772C235.58 16.3973 235.013 18.728 235.013 21.764C235.013 24.8 235.565 27.1307 236.669 28.756C237.804 30.3507 239.444 31.148 241.591 31.148C244.075 31.148 245.884 30.4887 247.019 29.17C248.154 27.8207 248.721 25.6587 248.721 22.684V21.718C248.721 18.3447 248.138 15.9373 246.973 14.496C245.808 13.024 243.983 12.288 241.499 12.288ZM272.376 8.884C275.32 8.884 277.543 9.60467 279.046 11.046C280.548 12.4567 281.3 14.7567 281.3 17.946V34H277.298V18.222C277.298 14.266 275.458 12.288 271.778 12.288C269.048 12.288 267.162 13.0547 266.12 14.588C265.077 16.1213 264.556 18.3293 264.556 21.212V34H260.508V9.344H263.774L264.372 12.702H264.602C265.399 11.414 266.503 10.4633 267.914 9.85C269.324 9.206 270.812 8.884 272.376 8.884ZM298.465 8.884C300.581 8.884 302.391 9.344 303.893 10.264C305.427 11.184 306.592 12.4873 307.389 14.174C308.217 15.83 308.631 17.7773 308.631 20.016V22.454H291.749C291.811 25.2447 292.516 27.376 293.865 28.848C295.245 30.2893 297.162 31.01 299.615 31.01C301.179 31.01 302.559 30.872 303.755 30.596C304.982 30.2893 306.239 29.86 307.527 29.308V32.85C306.27 33.402 305.028 33.8007 303.801 34.046C302.575 34.322 301.118 34.46 299.431 34.46C297.101 34.46 295.031 33.9847 293.221 33.034C291.443 32.0833 290.047 30.6727 289.035 28.802C288.054 26.9007 287.563 24.5853 287.563 21.856C287.563 19.1573 288.008 16.842 288.897 14.91C289.817 12.978 291.09 11.4907 292.715 10.448C294.371 9.40533 296.288 8.884 298.465 8.884ZM298.419 12.196C296.487 12.196 294.954 12.8247 293.819 14.082C292.715 15.3087 292.056 17.026 291.841 19.234H304.399C304.369 17.1487 303.878 15.462 302.927 14.174C301.977 12.8553 300.474 12.196 298.419 12.196ZM326.408 8.884C326.868 8.884 327.359 8.91467 327.88 8.976C328.432 9.00666 328.907 9.068 329.306 9.16L328.8 12.886C328.401 12.794 327.957 12.7173 327.466 12.656C327.006 12.5947 326.561 12.564 326.132 12.564C324.875 12.564 323.694 12.9167 322.59 13.622C321.486 14.2967 320.597 15.2627 319.922 16.52C319.278 17.7467 318.956 19.188 318.956 20.844V34H314.908V9.344H318.22L318.68 13.852H318.864C319.661 12.5027 320.689 11.3373 321.946 10.356C323.203 9.37467 324.691 8.884 326.408 8.884Z" fill="black"/>
</svg>
