<svg width="60" height="60" viewBox="0 0 60 60" fill="none" xmlns="http://www.w3.org/2000/svg">
<g clip-path="url(#clip0)">
<path d="M50.771 0.45166L59.5438 9.22447V59.5255L9.26549 59.5027L0.492676 50.7299" stroke="white" stroke-width="2" stroke-miterlimit="10" stroke-linejoin="round"/>
<path d="M50.7983 50.7573L59.5575 59.5119" stroke="white" stroke-width="2" stroke-miterlimit="10"/>
<path d="M30.1916 50.7345L33.1889 42.7372C36.1679 42.9881 38.6816 41.9981 39.4206 40.0273L42.687 31.3093C43.3348 29.5803 42.4589 27.6596 40.7299 27.0118C40.0228 26.7472 39.2883 26.7427 38.6177 26.9388L44.4252 11.6012C45.073 9.87223 44.1971 7.95161 42.4681 7.3038C40.739 6.65599 38.8184 7.53191 38.1706 9.26092L34.1971 19.6989C33.823 19.1332 33.2755 18.6724 32.5867 18.4169C31.4598 17.9927 30.2463 18.2253 29.3613 18.9142C28.9872 18.2527 28.3896 17.7098 27.6232 17.4224C26.0994 16.8522 24.4252 17.4635 23.6086 18.8002C23.2345 18.1432 22.6414 17.614 21.8796 17.3266C20.1505 16.6788 18.2299 17.5547 17.5821 19.2837L13.8549 29.229L13.9142 29.2518C13.1524 31.2819 14.0921 35.7208 14.3796 37.3996L9.02371 50.7436H0.460754V0.456177H50.739V50.7345H30.1916Z" stroke="white" stroke-width="2" stroke-miterlimit="10" stroke-linejoin="round"/>
<path d="M44.5438 11.1861H50.6934" stroke="white" stroke-width="2" stroke-miterlimit="10" stroke-linejoin="round"/>
<path d="M27.2537 0.552002V5.70711C27.2537 8.71806 29.7172 11.1816 32.7281 11.1816H37.4316" stroke="white" stroke-width="2" stroke-miterlimit="10" stroke-linejoin="round"/>
</g>
<defs>
<clipPath id="clip0">
<rect width="60" height="59.9817" fill="white"/>
</clipPath>
</defs>
</svg>
