<svg width="440" height="56" viewBox="0 0 440 56" fill="none" xmlns="http://www.w3.org/2000/svg">
<path d="M23.664 55L6.744 9.928H6.456C6.6 11.416 6.72 13.432 6.816 15.976C6.912 18.472 6.96 21.088 6.96 23.824V55H0.984V3.592H10.56L26.4 45.712H26.688L42.816 3.592H52.32V55H45.912V23.392C45.912 20.896 45.96 18.424 46.056 15.976C46.2 13.528 46.32 11.536 46.416 10H46.128L28.992 55H23.664ZM80.0563 15.76C84.7603 15.76 88.2403 16.792 90.4963 18.856C92.7523 20.92 93.8803 24.208 93.8803 28.72V55H89.2723L88.0483 49.528H87.7603C86.0803 51.64 84.3043 53.2 82.4323 54.208C80.6083 55.216 78.0643 55.72 74.8003 55.72C71.2963 55.72 68.3923 54.808 66.0883 52.984C63.7843 51.112 62.6323 48.208 62.6323 44.272C62.6323 40.432 64.1443 37.48 67.1683 35.416C70.1923 33.304 74.8483 32.152 81.1363 31.96L87.6883 31.744V29.44C87.6883 26.224 86.9923 23.992 85.6003 22.744C84.2083 21.496 82.2403 20.872 79.6963 20.872C77.6803 20.872 75.7603 21.184 73.9363 21.808C72.1123 22.384 70.4083 23.056 68.8243 23.824L66.8803 19.072C68.5603 18.16 70.5523 17.392 72.8563 16.768C75.1603 16.096 77.5603 15.76 80.0563 15.76ZM81.9283 36.352C77.1283 36.544 73.7923 37.312 71.9203 38.656C70.0963 40 69.1843 41.896 69.1843 44.344C69.1843 46.504 69.8323 48.088 71.1283 49.096C72.4723 50.104 74.1763 50.608 76.2403 50.608C79.5043 50.608 82.2163 49.72 84.3763 47.944C86.5363 46.12 87.6163 43.336 87.6163 39.592V36.136L81.9283 36.352ZM123.8 15.688C124.52 15.688 125.288 15.736 126.104 15.832C126.968 15.88 127.712 15.976 128.336 16.12L127.544 21.952C126.92 21.808 126.224 21.688 125.456 21.592C124.736 21.496 124.04 21.448 123.368 21.448C121.4 21.448 119.552 22 117.824 23.104C116.096 24.16 114.704 25.672 113.648 27.64C112.64 29.56 112.136 31.816 112.136 34.408V55H105.8V16.408H110.984L111.704 23.464H111.992C113.24 21.352 114.848 19.528 116.816 17.992C118.784 16.456 121.112 15.688 123.8 15.688ZM141.806 28.864C141.806 29.632 141.758 30.64 141.662 31.888C141.614 33.136 141.566 34.216 141.518 35.128H141.806C142.094 34.744 142.526 34.192 143.102 33.472C143.678 32.752 144.254 32.032 144.83 31.312C145.454 30.544 145.982 29.92 146.414 29.44L158.726 16.408H166.142L150.518 32.896L167.222 55H159.59L146.198 37L141.806 40.816V55H135.542V0.279996H141.806V28.864ZM193.57 55V3.592H200.05V49.24H222.514V55H193.57ZM245.08 15.76C249.784 15.76 253.264 16.792 255.52 18.856C257.776 20.92 258.904 24.208 258.904 28.72V55H254.296L253.072 49.528H252.784C251.104 51.64 249.328 53.2 247.456 54.208C245.632 55.216 243.088 55.72 239.824 55.72C236.32 55.72 233.416 54.808 231.112 52.984C228.808 51.112 227.656 48.208 227.656 44.272C227.656 40.432 229.168 37.48 232.192 35.416C235.216 33.304 239.872 32.152 246.16 31.96L252.712 31.744V29.44C252.712 26.224 252.016 23.992 250.624 22.744C249.232 21.496 247.264 20.872 244.72 20.872C242.704 20.872 240.784 21.184 238.96 21.808C237.136 22.384 235.432 23.056 233.848 23.824L231.904 19.072C233.584 18.16 235.576 17.392 237.88 16.768C240.184 16.096 242.584 15.76 245.08 15.76ZM246.952 36.352C242.152 36.544 238.816 37.312 236.944 38.656C235.12 40 234.208 41.896 234.208 44.344C234.208 46.504 234.856 48.088 236.152 49.096C237.496 50.104 239.2 50.608 241.264 50.608C244.528 50.608 247.24 49.72 249.4 47.944C251.56 46.12 252.64 43.336 252.64 39.592V36.136L246.952 36.352ZM285.295 3.592C292.015 3.592 296.911 4.912 299.983 7.552C303.055 10.192 304.591 13.912 304.591 18.712C304.591 21.544 303.943 24.208 302.647 26.704C301.399 29.152 299.263 31.144 296.239 32.68C293.263 34.216 289.207 34.984 284.071 34.984H278.167V55H271.687V3.592H285.295ZM284.719 9.136H278.167V29.44H283.351C288.247 29.44 291.895 28.648 294.295 27.064C296.695 25.48 297.895 22.792 297.895 19C297.895 15.688 296.839 13.216 294.727 11.584C292.615 9.952 289.279 9.136 284.719 9.136ZM347.969 35.632C347.969 42.016 346.337 46.96 343.073 50.464C339.857 53.968 335.489 55.72 329.969 55.72C326.561 55.72 323.513 54.952 320.825 53.416C318.185 51.832 316.097 49.552 314.561 46.576C313.025 43.552 312.257 39.904 312.257 35.632C312.257 29.248 313.865 24.328 317.081 20.872C320.297 17.416 324.665 15.688 330.185 15.688C333.689 15.688 336.761 16.48 339.401 18.064C342.089 19.6 344.177 21.856 345.665 24.832C347.201 27.76 347.969 31.36 347.969 35.632ZM318.809 35.632C318.809 40.192 319.697 43.816 321.473 46.504C323.297 49.144 326.177 50.464 330.113 50.464C334.001 50.464 336.857 49.144 338.681 46.504C340.505 43.816 341.417 40.192 341.417 35.632C341.417 31.072 340.505 27.496 338.681 24.904C336.857 22.312 333.977 21.016 330.041 21.016C326.105 21.016 323.249 22.312 321.473 24.904C319.697 27.496 318.809 31.072 318.809 35.632ZM361.251 1.936C362.211 1.936 363.051 2.272 363.771 2.944C364.539 3.568 364.923 4.576 364.923 5.968C364.923 7.312 364.539 8.32 363.771 8.992C363.051 9.664 362.211 10 361.251 10C360.195 10 359.307 9.664 358.587 8.992C357.867 8.32 357.507 7.312 357.507 5.968C357.507 4.576 357.867 3.568 358.587 2.944C359.307 2.272 360.195 1.936 361.251 1.936ZM364.347 16.408V55H358.011V16.408H364.347ZM395.149 15.688C399.757 15.688 403.237 16.816 405.589 19.072C407.941 21.28 409.117 24.88 409.117 29.872V55H402.853V30.304C402.853 24.112 399.973 21.016 394.213 21.016C389.941 21.016 386.989 22.216 385.357 24.616C383.725 27.016 382.909 30.472 382.909 34.984V55H376.573V16.408H381.685L382.621 21.664H382.981C384.229 19.648 385.957 18.16 388.165 17.2C390.373 16.192 392.701 15.688 395.149 15.688ZM433.969 50.536C434.929 50.536 435.913 50.464 436.921 50.32C437.929 50.128 438.745 49.936 439.369 49.744V54.568C438.697 54.904 437.737 55.168 436.489 55.36C435.241 55.6 434.041 55.72 432.889 55.72C430.873 55.72 429.001 55.384 427.273 54.712C425.593 53.992 424.225 52.768 423.169 51.04C422.113 49.312 421.585 46.888 421.585 43.768V21.304H416.113V18.28L421.657 15.76L424.177 7.552H427.921V16.408H439.081V21.304H427.921V43.624C427.921 45.976 428.473 47.728 429.577 48.88C430.729 49.984 432.193 50.536 433.969 50.536Z" fill="black"/>
</svg>
